<?xml version="1.0" encoding="UTF-8" standalone="no"?>

<svg width="500" height="1000" viewBox="0 0 500 1000" version="1.1" id="svg1" xml:space="preserve" xmlns="http://www.w3.org/2000/svg" xmlns:svg="http://www.w3.org/2000/svg">
  <g transform="translate(-535.79051,-319.65226)">
    <path style="fill:#000000;fill-opacity:1"
      d="m 783.39998,1249.7851 c -3.0984,-0.8375 -6.01808,-3.2604 -7.2644,-6.0283 -1.06978,-2.3759 -0.99491,-6.3791 0.16406,-8.7725 1.01843,-2.1032 3.15998,-4.2024 5.28413,-5.1797 2.33352,-1.0736 6.34382,-0.9855 8.74149,0.1919 2.10842,1.0355 4.20644,3.1809 5.18011,5.2973 0.97299,2.1149 0.97299,6.3175 0,8.4324 -0.9745,2.1182 -3.08034,4.2708 -5.12342,5.2374 -1.88415,0.8913 -5.25599,1.2881 -6.98197,0.8215 z m 4.86349,-5.5058 c 3.79789,-1.8386 3.9442,-7.3852 0.24999,-9.4775 -5.23804,-2.9667 -10.7379,3.618 -6.78365,8.1216 1.82689,2.0807 4.07331,2.5469 6.53366,1.3559 z m -5.02241,-89.8055 c -3.17225,-0.5917 -7.72025,-4.0188 -9.37992,-7.0682 -2.28593,-4.2 -2.35475,-9.3134 -0.18265,-13.5711 1.61117,-3.1582 6.9822,-7.2845 9.48181,-7.2845 0.66758,0 0.76354,-0.1149 0.60137,-0.72 -0.10612,-0.396 -0.19492,-19.9511 -0.19732,-43.4557 l -0.004,-42.7357 -1.08347,-0.3918 c -1.78458,-0.6453 -3.92044,-2.7824 -5.02679,-5.0297 -2.43157,-4.9393 -0.62879,-10.8719 4.12874,-13.5871 l 1.96249,-1.12 0.01,-11.4646 0.01,-11.4646 0.93538,-0.93539 c 0.6384,-0.6384 1.25582,-0.93538 1.94462,-0.93538 0.6888,0 1.30622,0.29698 1.94461,0.93538 l 0.93539,0.93539 v 11.318 11.318 l 1.88785,0.8666 c 2.44837,1.1238 4.82559,3.6765 5.56985,5.981 1.82804,5.6602 -0.90919,11.5499 -6.2577,13.4646 l -1.2,0.4296 v 42.7895 c 0,23.5343 -0.0765,42.9889 -0.17004,43.2327 -0.12038,0.3137 0.29822,0.5631 1.43361,0.8541 2.0561,0.5269 4.98259,2.4203 6.52798,4.2234 0.66545,0.7764 1.66858,2.3477 2.22918,3.4917 0.97351,1.9866 1.21949,3.5739 1.21949,5.92 0,2.2328 -0.24462,3.9306 -1.22896,5.9421 -2.57696,5.2659 -7.43188,8.3577 -12.96117,8.2543 -1.28155,-0.024 -2.6896,-0.1106 -3.12901,-0.1926 z m 7.39629,-5.9212 c 3.113,-1.838 4.83342,-4.6924 4.85833,-8.0607 0.0366,-4.9438 -4.04969,-9.1309 -8.9187,-9.1388 -3.74656,-0.01 -6.51603,1.6083 -8.30719,4.8421 -0.83103,1.5003 -0.94981,2.0349 -0.94981,4.2748 0,2.2404 0.11869,2.7743 0.95075,4.2765 1.04546,1.8876 2.83577,3.4944 4.80925,4.3164 1.96524,0.8186 5.73818,0.5638 7.55737,-0.5103 z m -1.3396,-113.9911 c 4.02943,-2.0837 3.96589,-7.9525 -0.10611,-9.8017 -1.6572,-0.7526 -2.88441,-0.7534 -4.53681,-0 -4.14405,1.8821 -4.30562,7.1835 -0.29485,9.6745 1.16725,0.725 3.66045,0.7907 4.93777,0.1301 z m -12.65637,-52.35432 c -48.48255,-2.04142 -93.6121,-20.001 -131.3214,-52.26016 -4.33706,-3.71023 -17.60676,-16.97993 -21.31698,-21.31699 -13.435,-15.70482 -23.80387,-31.63351 -32.18324,-49.44 -16.03942,-34.08438 -22.90435,-72.81313 -19.28552,-108.8 1.48929,-14.81006 4.11712,-30.16818 7.41906,-43.36 l 1.48178,-5.92 0.0368,-8.32 c 0.0281,-6.34773 0.15946,-8.88892 0.55424,-10.72 0.73707,-3.41871 1.81065,-6.08602 2.87999,-7.15537 1.38627,-1.38626 3.15235,-1.11151 6.9968,1.08849 2.42228,1.38617 3.34511,1.74135 4.79738,1.84639 1.66166,0.1202 1.88861,0.0507 2.98948,-0.91591 3.15974,-2.7743 4.61922,-9.45367 3.24777,-14.8636 -0.2677,-1.056 -1.92914,-4.8 -3.69208,-8.32 -3.24617,-6.48152 -4.01739,-8.77571 -3.63078,-10.80072 0.51456,-2.69525 3.04131,-6.16509 5.34541,-7.34056 1.0452,-0.53322 1.70342,-0.628 3.54183,-0.51 2.4858,0.15954 4.46225,1.00915 9.9199,4.26422 6.10953,3.64387 9.53574,4.33327 13.02344,2.62051 5.90703,-2.90086 8.26201,-10.43383 8.27622,-26.47345 0.006,-6.2587 0.513,-12.88838 1.27137,-16.61008 0.78933,-3.8736 2.65531,-7.74758 4.73212,-9.82438 1.8249,-1.82491 5.06539,-3.45058 6.27364,-3.14732 1.53469,0.38518 3.64683,2.68238 6.971,7.58177 1.8207,2.68347 3.97787,5.57361 4.79371,6.42254 1.26653,1.31788 1.6361,1.52843 2.52836,1.44048 0.66236,-0.0653 1.26213,-0.39595 1.63795,-0.90301 0.32611,-0.44 1.29149,-3.608 2.14529,-7.04 1.77227,-7.12399 3.07006,-10.09548 5.44753,-12.47295 2.26522,-2.26522 4.42937,-2.98157 8.51752,-2.81936 3.71649,0.14746 5.09484,0.70139 7.00422,2.81485 2.0881,2.31127 2.97143,5.25947 3.88229,12.95746 0.56718,4.79348 1.35342,6.84784 2.81236,7.34841 1.35993,0.46661 3.40023,-0.40017 9.44425,-4.01216 6.03614,-3.60729 8.96342,-4.92709 12.10321,-5.45689 4.05665,-0.6845 7.71597,0.77059 11.97894,4.76331 4.0519,3.79504 4.47715,6.74181 1.7069,11.82788 -3.12889,5.74453 -3.31738,6.21076 -3.325,8.22431 -0.007,1.82256 0.046,1.94583 1.38766,3.23133 0.89324,0.85588 2.30288,1.70745 3.92,2.3681 8.65241,3.5348 10.68517,5.3413 10.68517,9.49584 0,2.706 -0.58494,4.2525 -2.23114,5.89887 -2.09014,2.09034 -3.73097,2.53338 -10.72886,2.89688 -3.168,0.16456 -6.37131,0.37878 -7.11848,0.47604 -1.52163,0.19808 -3.28152,1.47345 -3.28152,2.37808 0,0.95881 1.71473,2.11159 5.03079,3.38213 8.42201,3.22685 11.10825,5.62085 11.07306,9.86837 -0.023,2.77703 -1.06079,5.24408 -3.15958,7.51103 -2.1677,2.34137 -4.88619,3.71829 -9.04333,4.58046 -2.77188,0.57488 -3.86497,0.62293 -10.30094,0.45285 -3.96,-0.10465 -8.73695,-0.28168 -10.61544,-0.39341 -1.8785,-0.11172 -3.76181,-0.1162 -4.18514,-0.01 -0.79589,0.19975 -1.51942,1.37245 -1.51942,2.46266 0,1.14784 2.14778,3.00636 6.07651,5.25815 8.07157,4.62631 10.56252,7.76819 10.1617,12.81712 -0.39879,5.02324 -4.18565,7.90948 -11.08101,8.44566 -6.31704,0.4912 -13.52547,-0.40153 -28.46372,-3.52513 -11.28165,-2.359 -14.27038,-2.84702 -17.44548,-2.84865 -2.41752,-10e-4 -2.55184,0.0385 -3.57133,1.05804 -0.58955,0.58955 -1.22262,1.66575 -1.42754,2.42678 -0.61186,2.27227 -0.0864,3.70896 3.17099,8.66966 1.03558,1.5771 2.12982,3.61092 2.43163,4.51961 1.10737,3.33395 -0.0339,6.83485 -3.29492,10.10777 -2.53186,2.54105 -4.41526,3.38514 -7.91683,3.54808 -4.58986,0.21359 -7.90027,-1.15262 -16.10786,-6.64775 -6.38263,-4.27328 -7.80488,-4.91416 -10.52175,-4.74116 -1.80365,0.11485 -2.20237,0.25646 -2.8535,1.01344 -0.99929,1.16174 -0.97958,2.59389 0.0923,6.70625 1.05904,4.06311 1.14925,7.20397 0.25899,9.01799 -0.94099,1.9174 -1.83141,2.21234 -5.26323,1.74336 -8.76515,-1.19782 -14.19982,1.52668 -16.7824,8.41333 -1.38513,3.69356 -2.03623,9.73366 -2.50984,23.28331 l -0.0727,2.08 -0.74396,-3.02164 c -1.15292,-4.68271 -1.64352,-9.27202 -1.64394,-15.37836 -5.6e-4,-8.21573 1.06138,-14.72004 3.69736,-22.64607 8.69791,-26.15344 31.91189,-51.24935 66.51436,-71.90657 12.39105,-7.39729 29.67204,-15.82952 43.29817,-21.12726 4.09042,-1.59032 2.21186,-1.24408 -3.50193,0.64546 -24.15059,7.98653 -44.18904,17.44493 -61.70007,29.12318 -11.09673,7.40051 -18.05098,13.10742 -26.58075,21.81316 -10.09953,10.30788 -17.89117,21.35558 -22.86359,32.4181 -5.01654,11.16067 -8.20862,27.63228 -9.45709,48.8 -0.59001,10.00346 0.16727,24.22741 1.95923,36.8 4.88648,34.28413 18.52224,67.11786 39.43577,94.95789 16.80951,22.37676 36.7475,40.27422 61.02643,54.78075 6.47734,3.87018 21.39077,11.19208 28.64,14.0611 20.13896,7.97039 39.8029,12.48177 62.4,14.31606 6.08239,0.49373 23.83248,0.49545 29.92,0.003 28.57208,-2.31183 53.85252,-9.27988 78.4,-21.60938 55.94961,-28.10191 96.31896,-79.65343 110.0311,-140.50931 3.91029,-17.35425 5.85333,-38.39302 4.87637,-52.8 -0.89799,-13.24248 -4.55033,-35.87389 -6.94012,-43.00393 -1.09509,-3.26725 -3.79834,-9.15836 -6.0008,-13.07739 -16.56163,-29.46957 -48.84902,-54.03417 -93.48655,-71.12558 -5.55001,-2.12506 -20.32816,-7.13161 -20.51103,-6.94873 -0.0619,0.0619 2.15181,1.02207 4.91927,2.1338 31.74519,12.75248 59.38089,29.72767 78.43861,48.18082 18.34758,17.76552 28.99907,36.10638 32.42979,55.84101 0.90887,5.22816 0.99264,16.37149 0.15876,21.12 -0.69037,3.93133 -1.55629,7.74579 -1.72098,7.5811 -0.0711,-0.0711 -0.26568,-3.46031 -0.4324,-7.53159 -0.34895,-8.52117 -0.72189,-12.04175 -1.63132,-15.39987 -1.23818,-4.57201 -3.58858,-7.57612 -7.33071,-9.36958 -2.53266,-1.2138 -5.91177,-1.50044 -10.2901,-0.87288 -2.71313,0.38889 -2.91201,0.37678 -3.72796,-0.22697 -2.20062,-1.6283 -2.48273,-4.60913 -1.00583,-10.62743 1.25175,-5.10076 1.14614,-6.25196 -0.65611,-7.15228 -1.46821,-0.73346 -4.26658,-0.71639 -5.92,0.0361 -0.704,0.3204 -3.71693,2.19976 -6.69541,4.17634 -8.55022,5.67412 -11.56644,6.91324 -16.26942,6.68376 -3.37138,-0.1645 -5.16642,-1.00127 -7.83702,-3.65325 -2.48908,-2.47173 -3.59068,-4.69023 -3.59502,-7.24002 -0.004,-2.34389 0.73811,-4.27391 2.84234,-7.39225 3.56805,-5.28763 4.05105,-7.43838 2.29297,-10.21057 -0.75577,-1.19172 -1.17328,-1.52816 -2.11586,-1.70499 -2.43727,-0.45724 -7.04466,0.18064 -19.50257,2.70007 -14.86222,3.00565 -18.82678,3.57846 -24.96,3.60629 -8.02196,0.0364 -12.14001,-1.62569 -13.96126,-5.63488 -0.88412,-1.94625 -0.80767,-5.62929 0.15956,-7.6871 1.03075,-2.19296 3.88303,-4.7897 7.7217,-7.0299 5.22918,-3.05169 6.54861,-3.97676 7.21821,-5.06082 0.74989,-1.21404 0.59685,-2.3571 -0.43186,-3.22567 -0.63477,-0.53596 -1.09552,-0.5766 -4.54635,-0.40108 -9.53974,0.48522 -17.36629,0.58169 -19.55115,0.24099 -7.28366,-1.1358 -11.64216,-4.18809 -13.24738,-9.27722 -1.17043,-3.7107 -0.62474,-6.19753 1.8494,-8.42819 1.68341,-1.51776 2.46848,-1.93341 8.03877,-4.25604 5.02603,-2.09568 6.1806,-2.99496 5.49352,-4.27879 -0.7449,-1.39186 -2.10334,-1.74371 -7.86316,-2.03665 -10.0194,-0.50956 -12.60845,-1.38115 -14.37741,-4.84007 -1.33111,-2.60279 -1.36685,-5.47287 -0.0951,-7.63635 1.1511,-1.95821 2.80017,-3.06061 7.73937,-5.17372 2.22009,-0.94982 4.60325,-2.10197 5.2959,-2.56035 2.65133,-1.75456 2.89581,-4.34138 0.78483,-8.30414 -3.59998,-6.75794 -3.73161,-7.07817 -3.73161,-9.07851 0,-3.31289 2.15147,-6.25965 6.67912,-9.14804 3.16424,-2.01862 4.06519,-2.31094 6.98488,-2.26635 3.976,0.0607 7.09442,1.35278 14.88,6.16524 5.76114,3.56111 8.0474,4.22806 9.41927,2.74779 0.93479,-1.00866 1.29173,-2.42184 1.93518,-7.66175 0.98447,-8.01705 2.23919,-11.26749 5.09771,-13.20603 2.07624,-1.40802 3.67284,-1.77549 7.06784,-1.6267 3.44754,0.1511 5.09458,0.83483 7.28327,3.02353 2.11376,2.11376 3.56427,5.29475 4.8806,10.70321 2.14606,8.81768 2.47594,9.57561 4.16767,9.57561 1.47898,0 3.13713,-1.74783 6.85901,-7.22993 3.50979,-5.16972 5.70745,-7.63436 7.26605,-8.14875 2.4949,-0.82339 7.30846,2.87105 9.3707,7.19207 2.02747,4.24819 2.76706,9.37169 3.05254,21.14661 0.38756,15.98498 1.43667,21.14895 5.09007,25.05473 2.19473,2.34635 4.34884,3.39911 6.91008,3.37711 2.68336,-0.0231 4.7698,-0.83137 10.08,-3.90514 5.4668,-3.16441 7.20822,-3.86962 9.57897,-3.8791 2.49407,-0.01 4.3478,0.89496 5.92777,2.89377 2.13823,2.70506 2.67937,4.17758 2.49291,6.78355 -0.15024,2.09987 -0.39504,2.72718 -3.21565,8.2404 -3.79226,7.41243 -4.53184,9.65793 -4.53028,13.75468 10e-4,3.41757 0.75056,6.16919 2.37907,8.73709 1.98562,3.131 4.06132,3.25412 9.1528,0.54291 5.27984,-2.81151 6.62213,-2.62265 8.36144,1.17649 0.43196,0.94353 1.07501,3.0448 1.42901,4.66951 0.57726,2.6494 0.64016,4.04797 0.60998,13.56313 -0.0185,5.83503 0.0997,10.95996 0.26276,11.38876 0.47743,1.25573 3.42481,14.30334 4.64487,20.56211 3.58458,18.38861 4.81751,29.37574 4.7759,42.56 -0.049,15.54016 -1.69756,30.23382 -5.08182,45.29551 -18.62957,82.91118 -85.16953,147.41813 -168.46772,163.32051 -11.36669,2.17 -20.14717,3.16966 -32.48,3.69785 -8.02732,0.3438 -8.77367,0.34307 -17.3186,-0.0167 z m 8.52491,-18.61519 c -0.43654,-0.22801 -0.97441,-0.77174 -1.19529,-1.20827 -0.31669,-0.62591 -0.40258,-10.85578 -0.4063,-48.39369 -0.005,-46.24232 -0.0217,-47.6 -0.60173,-47.6 -1.31543,0 -5.0781,-2.25314 -6.83017,-4.09 -2.01021,-2.10749 -2.92414,-3.71758 -3.61434,-6.36747 -1.29982,-4.99034 0.18994,-10.04085 4.04697,-13.71983 1.74025,-1.65992 5.2986,-3.6627 6.50752,-3.6627 0.43523,0 0.48703,-13.69188 0.48703,-128.73597 V 581.07808 l -1.95611,-0.40402 c -2.47481,-0.51117 -4.84314,-1.55607 -7.21988,-3.18541 -8.59838,-5.89448 -11.50063,-17.36498 -6.77018,-26.75761 2.75603,-5.47227 7.77807,-9.45729 13.78718,-10.94018 l 2.15899,-0.53279 v -60.44406 c 0,-57.2854 -0.0293,-60.45326 -0.56,-60.62005 -3.0382,-0.95479 -4.84913,-2.00544 -6.8066,-3.94896 -3.25423,-3.23103 -4.7164,-7.01292 -4.38442,-11.34019 0.43871,-5.71842 3.85251,-10.37055 9.20648,-12.54606 7.06355,-2.87018 15.2114,0.41142 18.59146,7.48783 0.88788,1.85883 1.04232,2.56838 1.16304,5.34346 0.11679,2.6848 0.0276,3.5292 -0.55387,5.24478 -1.47747,4.35904 -4.99381,7.95723 -8.99498,9.20436 l -1.89564,0.59086 -0.003,60.52109 -0.003,60.5211 2.1535,0.54094 c 5.55215,1.39466 10.83509,5.5644 13.45098,10.61665 5.58994,10.79628 1.31869,23.50355 -9.68321,28.80822 -1.23129,0.59368 -3.06729,1.25056 -4.08,1.45973 l -1.84127,0.38031 v 128.66087 128.66086 l 1.68,0.58621 c 3.73408,1.30296 6.50614,3.81236 8.33126,7.54186 0.98438,2.01151 1.02874,2.26773 1.02874,5.94215 0,3.66761 -0.0458,3.93338 -1.01927,5.92 -0.5606,1.144 -1.56373,2.71526 -2.22918,3.49169 -1.48195,1.72909 -4.35815,3.63019 -6.32556,4.18103 l -1.46599,0.41045 v 47.78057 47.78057 l -0.72,0.81819 c -0.86744,0.98573 -2.3507,1.30516 -3.43369,0.73946 z m 4.95369,-102.76684 c 8.55485,-4.05619 6.32254,-16.73096 -3.065,-17.40263 -3.79425,-0.27148 -6.9367,1.43527 -8.78425,4.77096 -0.83206,1.50226 -0.95075,2.03614 -0.95075,4.27655 0,2.23985 0.11878,2.77445 0.94981,4.27482 1.79932,3.24856 4.39111,4.77657 8.17019,4.81679 1.55863,0.0166 2.48105,-0.16802 3.68,-0.73649 z m 0.18192,-285.8308 c 6.27544,-1.86192 10.46033,-6.73176 11.29842,-13.14762 0.74765,-5.72354 -2.73541,-12.24969 -8.04455,-15.07292 -11.74784,-6.24712 -25.33928,4.48807 -21.98526,17.36504 1.35342,5.19611 5.58775,9.47847 10.74295,10.86478 2.3223,0.6245 5.86621,0.62038 7.98844,-0.009 z m -0.43144,-162.89438 c 3.04724,-1.27322 5.32179,-4.82684 5.30205,-8.28362 -0.034,-5.95126 -5.6193,-10.01585 -11.43855,-8.32415 -3.46509,1.00733 -6.25712,4.72047 -6.2522,8.31484 0.009,6.39073 6.51605,10.74667 12.3887,8.29293 z" /></g></svg>
